<svg id="canvas" height="auto" xmlns="http://www.w3.org/2000/svg" version="1.1" xmlns:xlink="http://www.w3.org/1999/xlink" viewBox="0 0 900 512" width="auto" style="width: auto; height: auto;"><rect width="900" height="512" fill="#eead3d"/><g transform="matrix(0.2,0,0,0.2,-238.4,339.5199951171875)"><path d="M291 448.5L369.5 2L2 448.5H291Z" fill="#4fc9cc" transform="matrix(1,0,0,1,-300,422.4)"/><path d="M290.5 448L370 2.5L708.5 448H290.5Z" fill="#298a8c" transform="matrix(1,0,0,1,-300,422.4)"/></g><g transform="matrix(0.599204156850675,0,0,0.599204156850675,0.8015916862986501,98.41803801059808)"><path d="M291 448.5L369.5 2L2 448.5H291Z" fill="#4fc9cc" transform="matrix(1,0,0,1,0,243.55653773089762)"/><path d="M290.5 448L370 2.5L708.5 448H290.5Z" fill="#298a8c" transform="matrix(1,0,0,1,0,243.55653773089762)"/></g><g transform="matrix(0.36322903162823494,0,0,0.36322903162823494,192.30483244827303,223.68070752744592)"><path d="M291 448.5L369.5 2L2 448.5H291Z" fill="#4fc9cc" transform="matrix(1,0,0,1,300,349.27339383055073)"/><path d="M290.5 448L370 2.5L708.5 448H290.5Z" fill="#298a8c" transform="matrix(1,0,0,1,300,349.27339383055073)"/></g><g transform="matrix(0.3825412562432142,0,0,0.3825412562432142,371.710163741585,211.55465393828726)"><path d="M291 448.5L369.5 2L2 448.5H291Z" fill="#4fc9cc" transform="matrix(1,0,0,1,600,340.62151720304)"/><path d="M290.5 448L370 2.5L708.5 448H290.5Z" fill="#298a8c" transform="matrix(1,0,0,1,600,340.62151720304)"/></g></svg>