<svg id="canvas" height="auto" xmlns="http://www.w3.org/2000/svg" version="1.1" xmlns:xlink="http://www.w3.org/1999/xlink" viewBox="0 0 900 512" width="auto" style="width: auto; height: auto;"><rect width="900" height="512" fill="#0f6796"/><g transform="matrix(0.8,0,0,0.8,-59.599999999999994,31.120001220703116)"><path d="M291 448.5L369.5 2L2 448.5H291Z" fill="#ec8145" transform="matrix(1,0,0,1,-300,153.59999999999997)"/><path d="M290.5 448L370 2.5L708.5 448H290.5Z" fill="#b84e13" transform="matrix(1,0,0,1,-300,153.59999999999997)"/></g><g transform="matrix(0.5458194177341644,0,0,0.5458194177341644,0.9083611645316712,122.38935880427758)"><path d="M291 448.5L369.5 2L2 448.5H291Z" fill="#ec8145" transform="matrix(1,0,0,1,0,267.47290085509434)"/><path d="M290.5 448L370 2.5L708.5 448H290.5Z" fill="#b84e13" transform="matrix(1,0,0,1,0,267.47290085509434)"/></g><g transform="matrix(0.6424832165474212,0,0,0.6424832165474212,107.9700686026788,80.85868650458099)"><path d="M291 448.5L369.5 2L2 448.5H291Z" fill="#ec8145" transform="matrix(1,0,0,1,300,224.16751898675528)"/><path d="M290.5 448L370 2.5L708.5 448H290.5Z" fill="#b84e13" transform="matrix(1,0,0,1,300,224.16751898675528)"/></g><g transform="matrix(0.3967254507821185,0,0,0.3967254507821185,363.17127862916465,202.86132181086256)"><path d="M291 448.5L369.5 2L2 448.5H291Z" fill="#ec8145" transform="matrix(1,0,0,1,600,334.2669980496109)"/><path d="M290.5 448L370 2.5L708.5 448H290.5Z" fill="#b84e13" transform="matrix(1,0,0,1,600,334.2669980496109)"/></g></svg>